<?xml version="1.0" encoding="iso-8859-1"?>
<!-- Generator: Adobe Illustrator 19.0.0, SVG Export Plug-In . SVG Version: 6.00 Build 0)  -->
<svg version="1.1" id="Capa_1" xmlns="http://www.w3.org/2000/svg" xmlns:xlink="http://www.w3.org/1999/xlink" x="0px" y="0px"
	 viewBox="0 0 512 512" style="enable-background:new 0 0 512 512;" xml:space="preserve">
<path style="fill:#728080;" d="M338.824,117.318V512H176.046V175.884l49.469-49.469c3.235-3.235,7.108-5.676,11.332-7.211
	c3.379-1.236,6.974-1.885,10.642-1.885L338.824,117.318L338.824,117.318z"/>
<g>
	<path style="fill:#585E60;" d="M338.823,251.815V512H176.047V175.888l22.463-22.463c7.133,20.55,14.871,47.324,19.702,77.283
		c0.981,6.055,1.877,12.037,2.7,17.922l64.162-19.099c1.909-0.568,3.959-0.426,5.771,0.401L338.823,251.815z"/>
	<path style="fill:#585E60;" d="M338.824,117.318V512H236.847V119.203c3.379-1.236,6.974-1.885,10.642-1.885H338.824z"/>
</g>
<path style="fill:#A5B1B2;" d="M496.473,512H257.43V75.987c0,0,12.537-31.915,51.045-54.517c4.749-2.792,9.89-5.439,15.453-7.86
	c14.505-6.325,31.874-11.167,52.549-13.145c76.769-7.345,79.54,74.822,79.54,74.822v251.096l31.235,49.562l17.379,126.691
	C505.311,507.581,501.469,512,496.473,512z"/>
<path style="fill:#728080;" d="M478.971,512H257.435V237.756l27.64-8.225c1.909-0.568,3.959-0.426,5.771,0.401l141.867,64.719
	c2.291,1.045,3.979,3.081,4.581,5.526l49.678,201.61C488.253,506.982,484.321,512,478.971,512z"/>
<path style="fill:#009655;" d="M143.636,335.833c-6.458-19.092-15.976-42.634-27.638-67.635
	c-15.606-33.456-34.333-61.061-47.559-78.621c-4.303-5.713-13.334-1.5-11.722,5.468c4.957,21.417,14.074,53.505,29.681,86.961
	c11.662,25.001,23.584,47.422,34.063,64.638L143.636,335.833z"/>
<g>
	<path style="fill:#00C37A;" d="M154.431,330.659c-0.998-20.129-3.724-45.376-8.114-72.612
		c-5.875-36.446-16.35-68.117-24.276-88.621c-2.579-6.671-12.417-5.085-12.769,2.058c-1.081,21.957-1.075,55.315,4.8,91.761
		c4.39,27.236,9.735,52.06,15.113,71.484L154.431,330.659z"/>
	<path style="fill:#00C37A;" d="M206.005,306.601c-0.998-20.129-3.724-45.376-8.114-72.612
		c-5.875-36.446-16.35-68.117-24.276-88.621c-2.579-6.671-12.417-5.085-12.769,2.058c-1.081,21.957-1.075,55.315,4.8,91.761
		c4.39,27.236,9.735,52.06,15.113,71.484L206.005,306.601z"/>
</g>
<path style="fill:#D7E3E1;" d="M7.29,503.754v-90.656c0-2.051,0.765-4.028,2.145-5.546l91.378-100.459
	c1.011-1.111,2.306-1.925,3.745-2.353l178.989-53.28c1.909-0.568,3.96-0.426,5.772,0.401l125.79,57.385
	c2.291,1.045,3.979,3.081,4.582,5.526l46.078,187.009c1.28,5.195-2.652,10.213-8.002,10.213H15.532
	C10.98,511.996,7.29,508.306,7.29,503.754z"/>
<path style="fill:#A5B1B2;" d="M457.767,512H443.34l-46.888-190.313L257.52,259.214l26.029-7.752c1.909-0.569,3.96-0.426,5.773,0.4
	l125.785,57.38c2.291,1.045,3.979,3.081,4.582,5.526l46.082,187.018C467.049,506.982,463.117,512,457.767,512z"/>
<g>
	<path style="fill:#728080;" d="M372.086,354.985c-4.268,0-7.726-3.459-7.726-7.726v-0.999c0-4.268,3.459-7.726,7.726-7.726
		c4.268,0,7.726,3.459,7.726,7.726v0.999C379.813,351.527,376.354,354.985,372.086,354.985z"/>
	<path style="fill:#728080;" d="M347.087,378.551c-4.268,0-7.726-3.459-7.726-7.726v-0.999c0-4.268,3.459-7.726,7.726-7.726
		c4.268,0,7.726,3.459,7.726,7.726v0.999C354.814,375.092,351.355,378.551,347.087,378.551z"/>
	<path style="fill:#728080;" d="M381.679,411.178c-4.268,0-7.726-3.459-7.726-7.726v-0.999c0-4.268,3.459-7.726,7.726-7.726
		c4.268,0,7.726,3.459,7.726,7.726v0.999C389.405,407.72,385.947,411.178,381.679,411.178z"/>
	<path style="fill:#728080;" d="M404.019,100.333c-4.268,0-7.726-3.459-7.726-7.726v-0.999c0-4.268,3.459-7.726,7.726-7.726
		c4.268,0,7.726,3.459,7.726,7.726v0.999C411.745,96.874,408.286,100.333,404.019,100.333z"/>
	<path style="fill:#728080;" d="M381.679,128.995c-4.268,0-7.726-3.459-7.726-7.726v-0.999c0-4.268,3.459-7.726,7.726-7.726
		c4.268,0,7.726,3.459,7.726,7.726v0.999C389.405,125.536,385.947,128.995,381.679,128.995z"/>
	<path style="fill:#728080;" d="M411.472,239.942c-4.268,0-7.726-3.459-7.726-7.726V176.46c0-4.268,3.459-7.726,7.726-7.726
		c4.268,0,7.726,3.459,7.726,7.726v55.755C419.198,236.484,415.739,239.942,411.472,239.942z"/>
	<path style="fill:#728080;" d="M323.928,13.61v127.773c0,4.265-3.461,7.726-7.726,7.726s-7.726-3.462-7.726-7.726V21.47
		C313.224,18.678,318.365,16.031,323.928,13.61z"/>
	<path style="fill:#728080;" d="M238.912,439.709c-4.024,0-7.417-3.117-7.7-7.192l-1.891-27.268l-71.999-12.339l-39.878,44.245
		c-2.857,3.169-7.742,3.423-10.912,0.566c-3.17-2.857-3.423-7.742-0.566-10.912l42.728-47.406c1.774-1.968,4.434-2.884,7.045-2.443
		l82.177,14.083c3.511,0.603,6.156,3.527,6.402,7.081l2.311,33.323c0.295,4.257-2.916,7.947-7.173,8.242
		C239.272,439.703,239.091,439.709,238.912,439.709z"/>
</g>
<g>
</g>
<g>
</g>
<g>
</g>
<g>
</g>
<g>
</g>
<g>
</g>
<g>
</g>
<g>
</g>
<g>
</g>
<g>
</g>
<g>
</g>
<g>
</g>
<g>
</g>
<g>
</g>
<g>
</g>
</svg>
